<svg width="54" height="54" viewBox="0 0 54 54" fill="none" xmlns="http://www.w3.org/2000/svg">
<path d="M6.75 10.75C6.75 8.54086 8.54086 6.75 10.75 6.75H43.25C45.4591 6.75 47.25 8.54086 47.25 10.75V43.25C47.25 45.4591 45.4591 47.25 43.25 47.25H10.75C8.54086 47.25 6.75 45.4591 6.75 43.25V10.75Z" stroke="#B4CEFC" stroke-width="2"/>
<path d="M6.75 33.75L15.1805 25.3195C16.0628 24.4372 17.5288 24.5693 18.2391 25.5953L25.7664 36.4677C26.4311 37.4278 27.7735 37.6166 28.6773 36.8772L37.9741 29.2709C38.7694 28.6202 39.9283 28.678 40.6548 29.4046L47.25 36" stroke="#B4CEFC" stroke-width="2"/>
<circle cx="36" cy="18" r="4.5" fill="#B4CEFC"/>
</svg>
